<?xml version="1.0" standalone="no"?>
<!DOCTYPE svg PUBLIC "-//W3C//DTD SVG 20010904//EN"
 "http://www.w3.org/TR/2001/REC-SVG-20010904/DTD/svg10.dtd">
<svg version="1.0" xmlns="http://www.w3.org/2000/svg"
 width="570.000000pt" height="616.000000pt" viewBox="0 0 570.000000 616.000000"
 preserveAspectRatio="xMidYMid meet">

<g transform="translate(0.000000,616.000000) scale(0.100000,-0.100000)"
fill="#000000" stroke="none">
<path d="M3250 3482 c0 -4 10 -9 22 -9 18 -2 20 0 8 7 -18 12 -30 13 -30 2z"/>
<path d="M3306 3445 c-3 -9 0 -15 9 -15 16 0 20 16 6 24 -5 3 -11 -1 -15 -9z"/>
<path d="M3355 3401 c3 -6 1 -11 -5 -11 -7 0 -6 -5 2 -14 11 -12 14 -11 20 3
4 9 7 10 7 4 1 -7 8 -13 17 -13 28 0 11 35 -20 38 -18 2 -26 0 -21 -7z"/>
<path d="M3420 3371 c0 -12 -4 -21 -8 -21 -4 0 -8 -9 -9 -20 -1 -11 2 -20 8
-20 5 0 9 8 10 18 0 9 3 12 5 5 3 -6 -14 -60 -37 -120 -22 -59 -56 -147 -74
-194 -18 -47 -38 -94 -44 -105 -6 -10 -20 -41 -31 -68 l-21 -50 29 -22 c23
-19 28 -29 24 -53 -5 -35 -9 -37 -36 -16 -31 23 -45 18 -61 -23 -12 -30 -30
-46 -83 -77 -37 -22 -129 -76 -205 -122 l-138 -82 -37 23 c-20 12 -71 41 -112
63 -191 104 -194 106 -217 153 -29 61 -88 196 -191 433 -46 108 -89 197 -93
197 -5 0 -94 -50 -199 -111 -168 -98 -190 -115 -191 -138 -1 -17 -3 -20 -6 -8
-6 22 -5 22 -74 -14 l-59 -32 0 -97 c0 -95 1 -98 27 -115 l26 -17 -26 -17
c-15 -8 -27 -21 -27 -27 0 -7 -23 -26 -51 -42 -31 -18 -47 -32 -40 -36 6 -4
28 2 47 13 19 12 37 21 40 21 2 0 4 -33 4 -73 0 -68 2 -73 27 -88 l26 -17 -26
-17 c-15 -9 -27 -26 -27 -36 0 -12 -15 -26 -40 -39 -21 -11 -42 -20 -45 -20
-3 0 -5 18 -5 40 0 29 -5 42 -19 50 -27 14 -33 0 -29 -68 l3 -56 -144 -84
c-135 -80 -145 -83 -169 -71 -63 34 -83 133 -37 188 14 16 90 66 168 111 163
93 180 105 176 119 -4 12 -319 -167 -357 -202 -29 -27 -46 -86 -38 -132 4 -20
22 -53 42 -74 l34 -38 -34 -36 c-59 -62 -58 -154 2 -209 15 -14 113 -74 217
-133 105 -60 211 -123 236 -142 26 -18 52 -33 58 -33 6 0 194 -106 418 -236
225 -130 434 -249 466 -265 84 -40 178 -53 269 -39 87 13 131 32 304 133 72
42 306 177 520 300 332 191 460 265 615 355 25 15 32 12 224 -92 109 -58 200
-104 203 -102 14 15 -18 41 -120 94 -62 33 -144 77 -182 97 l-68 36 138 80
c155 90 180 110 200 156 26 61 9 125 -44 170 l-26 22 31 28 c61 57 68 155 15
210 -15 16 -84 62 -154 102 -71 40 -128 77 -128 81 0 4 -15 13 -32 20 -18 7
-70 33 -115 58 l-83 46 0 100 0 101 -63 36 c-34 20 -163 95 -286 168 -244 143
-271 155 -271 122z m30 0 c0 -6 -4 -13 -10 -16 -5 -3 -10 1 -10 9 0 9 5 16 10
16 6 0 10 -4 10 -9z m493 -386 c-26 -19 -30 6 -6 35 l18 21 3 -21 c2 -12 -4
-27 -15 -35z m-2295 -107 c7 -7 12 -34 12 -61 0 -41 -3 -48 -16 -43 -9 3 -18
6 -20 6 -2 0 -4 25 -4 55 0 56 6 65 28 43z m167 -95 c28 -16 89 -52 137 -79
l88 -49 0 -52 c0 -29 -3 -53 -8 -53 -4 0 -54 28 -112 61 -58 34 -127 75 -155
91 l-50 29 3 55 c4 54 4 55 25 41 12 -8 45 -28 72 -44z m2287 0 c35 -20 76
-47 91 -60 16 -12 34 -23 40 -23 23 0 279 -154 302 -182 46 -54 23 -161 -40
-190 -23 -10 -45 0 -242 114 l-217 125 3 105 c2 87 0 108 -14 122 -9 9 -21 16
-26 16 -5 0 -9 5 -9 11 0 17 42 3 112 -38z m-734 -79 c18 -12 22 -25 22 -69 0
-52 0 -53 -23 -42 -17 8 -27 24 -33 58 -15 69 -7 82 34 53z m172 -42 c0 -32
-5 -41 -25 -50 -24 -11 -25 -10 -25 22 0 23 7 38 23 49 12 9 23 16 25 16 1 1
2 -16 2 -37z m-1366 -79 c-27 -20 -34 -16 -34 20 0 26 6 36 23 44 20 9 22 7
25 -20 2 -21 -2 -35 -14 -44z m-309 -93 l170 -98 3 -57 3 -57 -68 38 c-37 21
-131 75 -208 119 l-140 82 -3 58 -3 58 38 -23 c21 -13 115 -67 208 -120z
m1825 111 c0 -20 -25 -51 -41 -51 -18 0 -9 39 13 54 28 20 28 20 28 -3z m553
-180 c108 -62 197 -116 197 -120 0 -3 -28 -21 -63 -40 -34 -19 -122 -70 -196
-113 -74 -43 -136 -78 -137 -78 -2 0 -4 43 -4 95 0 92 -1 96 -25 107 -14 6
-25 14 -25 18 0 4 11 13 25 20 24 13 25 17 25 111 0 94 -1 98 -27 118 l-28 21
30 -13 c17 -6 119 -63 228 -126z m-939 84 c-11 -8 -20 -10 -23 -4 -1 6 5 16
15 24 11 8 20 10 23 4 1 -6 -5 -16 -15 -24z m-881 -72 c83 -48 176 -102 205
-120 51 -33 52 -34 52 -83 0 -28 -3 -50 -6 -50 -6 0 -321 180 -376 216 -36 23
-38 27 -38 74 0 28 2 50 5 50 3 0 74 -39 158 -87z m967 -60 c0 -29 -3 -53 -6
-53 -24 0 -44 25 -49 64 -9 57 -2 69 30 54 22 -10 25 -18 25 -65z m134 -20
c-27 -20 -34 -16 -34 20 0 26 6 36 23 44 20 9 22 7 25 -20 2 -21 -2 -35 -14
-44z m-1334 9 c0 -32 -5 -41 -25 -50 -24 -11 -25 -10 -25 22 0 23 7 38 23 49
12 9 23 16 25 16 1 1 2 -16 2 -37z m-594 -138 l25 -20 -26 -14 c-24 -13 -25
-17 -25 -112 l0 -99 66 -41 c64 -40 65 -41 47 -60 -19 -18 -24 -16 -254 117
-129 75 -238 140 -242 144 -5 5 58 46 140 92 81 46 168 96 193 112 l45 28 3
-63 c2 -53 6 -66 28 -84z m86 104 c14 -10 29 -18 33 -18 5 0 36 -18 71 -40 35
-22 66 -40 68 -40 3 0 27 -14 54 -31 49 -30 49 -31 51 -86 l2 -55 -48 27 c-26
14 -103 58 -170 98 l-123 72 0 52 c0 58 6 60 62 21z m2184 -35 l-26 -26 0 23
c0 13 10 35 23 48 22 24 22 24 25 2 2 -13 -7 -31 -22 -47z m-1028 -39 c-1 -27
-7 -39 -25 -47 -29 -13 -32 -10 -26 29 4 26 21 44 50 53 1 1 2 -15 1 -35z
m1696 -15 c33 -39 36 -107 6 -149 -19 -26 -305 -200 -329 -200 -14 0 -220 114
-216 119 2 2 111 65 242 141 176 102 242 135 254 129 9 -5 29 -22 43 -40z
m-2162 -43 c51 -29 116 -67 143 -84 28 -17 74 -43 103 -58 63 -32 74 -49 64
-102 l-7 -41 -110 65 c-60 35 -117 67 -125 71 -8 5 -52 30 -97 56 l-83 49 0
49 c0 27 4 49 10 49 5 0 51 -24 102 -54z m1016 -90 l3 -56 -26 12 c-15 7 -25
19 -25 33 0 14 -10 26 -27 34 l-27 12 30 24 c25 20 32 22 49 11 15 -10 21 -26
23 -70z m152 21 c0 -26 -6 -36 -25 -45 -24 -11 -25 -10 -25 23 0 22 6 38 18
44 27 16 32 13 32 -22z m-2152 -136 c128 -74 232 -138 232 -143 0 -5 -7 -11
-15 -14 -26 -10 -17 -21 51 -59 57 -32 69 -36 88 -26 16 9 30 9 49 2 33 -13
34 -25 6 -37 -19 -9 -3 -21 131 -97 153 -87 173 -96 185 -77 11 17 32 11 96
-26 62 -37 62 -37 40 -53 -22 -17 -17 -20 231 -163 l253 -146 30 18 c17 9 149
86 294 170 l263 153 -51 29 c-46 27 -65 48 -43 48 5 0 35 16 68 36 l59 36 53
-26 54 -27 298 172 297 171 56 -29 c31 -15 55 -32 54 -37 -2 -5 -52 -37 -113
-71 -60 -34 -345 -198 -634 -365 -289 -167 -552 -315 -585 -329 -80 -34 -230
-36 -315 -4 -30 11 -253 135 -495 275 -242 140 -550 317 -684 394 -265 151
-281 165 -281 243 0 37 6 49 40 83 22 22 43 38 48 36 4 -1 112 -63 240 -137z
m652 78 c0 -27 -4 -49 -10 -49 -5 0 -10 25 -10 56 0 34 4 53 10 49 6 -3 10
-28 10 -56z m134 -16 c-27 -20 -34 -16 -34 20 0 26 6 36 23 44 20 9 22 7 25
-20 2 -21 -2 -35 -14 -44z m-324 -86 l95 -55 8 -52 c5 -28 7 -54 4 -57 -7 -6
-23 2 -194 104 l-143 84 0 54 0 54 68 -39 c37 -21 110 -63 162 -93z m1390 128
c0 -3 -9 -14 -20 -25 -22 -22 -28 -8 -7 15 12 14 27 20 27 10z m-1234 -102 c4
-13 4 -27 1 -30 -10 -9 -37 24 -37 46 0 28 28 16 36 -16z m832 -2 c2 -21 -4
-34 -20 -45 -12 -9 -25 -16 -28 -16 -13 0 3 65 18 78 23 18 27 15 30 -17z
m-513 -34 c28 -15 68 -39 90 -52 22 -14 49 -29 61 -34 12 -5 46 -26 77 -45 31
-20 59 -36 62 -36 4 0 20 -9 36 -21 25 -18 29 -27 29 -70 0 -27 -3 -49 -6 -49
-3 0 -77 42 -165 93 -88 50 -172 98 -187 106 -54 27 -63 42 -61 93 2 27 5 47
8 46 3 -2 29 -16 56 -31z m665 -62 c0 -15 -6 -25 -14 -25 -8 0 -17 -8 -19 -17
-4 -14 -5 -12 -6 5 0 12 7 31 17 41 22 25 22 25 22 -4z m400 -52 c0 -29 -3
-53 -6 -53 -18 0 -44 24 -44 41 0 11 -11 24 -25 31 -32 14 -31 19 3 39 20 11
33 13 50 6 19 -9 22 -18 22 -64z m150 23 c0 -25 -6 -38 -25 -50 l-25 -16 0 38
c0 36 13 52 48 61 1 1 2 -14 2 -33z m-1500 -62 c0 -34 -4 -53 -10 -49 -5 3
-10 31 -10 61 0 34 4 53 10 49 6 -3 10 -31 10 -61z m128 -17 l-23 -19 -3 33
c-3 25 2 37 20 50 23 18 23 18 26 -14 3 -23 -2 -36 -20 -50z m-293 11 c31 -14
32 -22 3 -35 -17 -7 -29 -6 -46 5 -21 14 -21 15 -5 28 22 16 17 16 48 2z m963
-74 c-1 -39 -33 -68 -49 -43 -13 22 -4 51 22 65 13 7 25 13 26 14 1 0 2 -16 1
-36z m-451 -68 c48 -29 134 -78 190 -110 l101 -57 4 -55 c1 -30 2 -54 1 -54
-3 0 -98 51 -113 60 -8 6 -80 48 -160 94 l-145 84 -1 51 c-1 62 -2 62 123 -13z
m453 -195 c0 -29 -34 -66 -50 -56 -12 7 1 59 18 73 24 19 32 15 32 -17z"/>
<path d="M2611 3243 c-15 -53 -12 -74 5 -38 l15 30 -6 -29 c-7 -32 13 -52 75
-73 28 -10 37 -10 45 0 16 21 46 28 61 16 10 -8 14 -8 14 0 0 6 5 11 10 11 6
0 10 -11 10 -25 0 -17 -8 -29 -25 -37 -56 -25 -10 -40 72 -23 27 6 32 4 39
-17 4 -12 7 -26 6 -30 -3 -13 6 -10 68 23 37 19 60 37 60 48 0 9 -13 41 -29
72 -15 31 -31 68 -35 83 -6 25 -26 37 -26 16 0 -5 -6 -10 -13 -10 -7 0 -43
-20 -80 -45 -61 -40 -107 -59 -93 -37 5 8 -140 102 -156 102 -4 0 -12 -17 -17
-37z"/>
<path d="M2526 3045 c-13 -33 -27 -49 -52 -61 -23 -11 -34 -23 -34 -38 0 -16
-2 -18 -9 -7 -8 12 -18 9 -58 -17 l-48 -32 32 0 c17 0 35 -4 38 -10 3 -5 -1
-10 -9 -10 -8 0 -18 -9 -21 -20 -3 -11 -13 -27 -22 -35 -19 -19 -9 -49 13 -41
14 5 15 4 5 -8 -8 -9 -8 -21 -1 -40 5 -14 12 -26 15 -26 7 0 167 85 248 132
l67 39 0 69 c0 64 -2 70 -27 88 -27 19 -108 62 -116 62 -2 0 -12 -20 -21 -45z"/>
<path d="M2872 2974 c-13 -9 -29 -13 -37 -10 -8 3 -15 2 -15 -3 0 -12 57 -22
85 -15 15 4 23 13 22 25 -2 23 -25 24 -55 3z"/>
<path d="M4392 2853 c-68 -42 -119 -79 -114 -82 5 -3 11 -11 13 -18 3 -8 42
10 109 48 58 33 109 64 113 69 5 4 7 19 5 33 -3 25 -5 25 -126 -50z"/>
<path d="M764 2687 c-165 -95 -340 -194 -387 -220 -65 -36 -87 -53 -87 -68 0
-21 0 -21 33 -1 48 29 429 245 604 342 106 59 153 90 153 103 0 9 -3 17 -7 16
-5 0 -143 -78 -309 -172z"/>
<path d="M4810 2483 c0 -14 34 -38 123 -87 67 -38 245 -139 395 -224 150 -85
275 -152 279 -149 14 15 -13 37 -128 101 -68 38 -243 137 -389 220 -146 83
-268 153 -272 154 -5 2 -8 -5 -8 -15z"/>
<path d="M451 2181 c-9 -6 -12 -58 -10 -216 2 -186 0 -210 -15 -221 -10 -7
-91 -54 -181 -106 -94 -53 -166 -101 -169 -111 -3 -13 14 -28 72 -62 42 -25
81 -47 87 -50 6 -3 7 -7 0 -10 -5 -3 -43 -25 -83 -49 l-73 -43 283 -163 c156
-90 288 -163 293 -163 7 0 366 204 382 218 2 1 -33 21 -77 46 -44 24 -80 46
-80 49 0 3 37 25 82 50 l81 46 1 229 1 228 -275 159 c-151 87 -282 163 -291
168 -8 5 -21 5 -28 1z m179 -144 c47 -26 114 -65 150 -86 36 -22 89 -52 117
-67 99 -53 101 -56 104 -169 1 -55 2 -128 1 -162 l-2 -63 -32 19 c-69 39 -143
86 -146 94 -2 4 -8 7 -14 7 -5 0 -20 8 -33 18 -21 17 -21 19 -7 29 10 6 14 14
10 18 -4 4 -18 1 -30 -7 -21 -14 -27 -14 -64 4 -23 10 -50 27 -60 36 -10 9
-30 23 -44 30 -14 7 -35 21 -48 30 l-23 18 21 22 c12 12 25 20 31 17 5 -4 9 1
9 9 0 8 -5 18 -10 21 -6 4 -8 10 -5 15 3 5 0 40 -6 79 -9 56 -9 74 1 86 18 21
-13 20 -51 -2 -28 -16 -28 -19 -32 -112 -2 -79 -3 -71 -5 45 -1 77 1 143 4
146 7 8 58 -15 164 -75z"/>
<path d="M4761 1871 c-71 -42 -119 -78 -127 -94 -11 -21 -14 -84 -12 -308 l3
-281 35 -20 35 -21 117 68 c64 37 124 75 133 85 14 16 16 55 16 312 l0 293
-28 17 c-15 10 -35 17 -43 17 -8 -1 -66 -31 -129 -68z m189 -246 l0 -235 -37
-23 c-74 -47 -201 -112 -207 -106 -3 3 -6 108 -6 233 -1 244 1 256 49 256 31
0 117 48 150 84 49 53 51 45 51 -209z m-66 210 c-6 -16 -24 -21 -24 -7 0 11
11 22 21 22 5 0 6 -7 3 -15z"/>
<path d="M1353 1514 c-62 -36 -113 -72 -113 -79 0 -26 21 -26 66 -1 26 14 49
26 53 26 3 0 6 -81 5 -180 0 -99 3 -180 8 -180 10 0 11 19 8 181 -1 90 2 129
10 134 13 8 130 -43 130 -57 0 -4 5 -8 11 -8 6 0 75 -39 154 -86 l143 -85 5
-52 c6 -60 -1 -439 -9 -446 -7 -7 -68 24 -202 105 -67 41 -127 74 -132 74 -6
0 -10 3 -10 8 0 4 -12 13 -27 20 -66 30 -71 39 -72 135 -1 34 -5 57 -12 57 -8
0 -10 -24 -7 -75 3 -58 8 -79 23 -94 11 -10 127 -82 259 -160 329 -197 316
-203 316 144 0 134 -4 255 -9 268 -7 17 -77 64 -253 167 -134 79 -251 149
-261 156 -17 11 -15 14 27 39 39 23 44 29 32 41 -8 8 -18 14 -23 14 -4 0 -59
-30 -120 -66z"/>
<path d="M4021 1513 c-46 -24 -103 -57 -125 -72 -23 -15 -116 -71 -208 -125
l-168 -98 0 -117 c0 -64 3 -166 7 -228 l6 -111 78 -43 c44 -24 79 -47 79 -50
0 -4 -34 -26 -76 -49 -42 -23 -72 -45 -68 -49 5 -5 91 -55 191 -113 l181 -105
99 56 c54 32 183 106 286 165 l189 109 -76 44 c-42 24 -76 47 -76 51 0 4 36
27 80 52 60 34 79 50 78 64 -2 12 -61 52 -185 123 l-183 105 0 213 c0 161 -3
214 -13 218 -6 2 -50 -15 -96 -40z m88 -180 c0 -87 -4 -150 -8 -140 -6 16 -10
15 -49 -12 -48 -35 -52 -37 -52 -16 0 18 -96 -78 -105 -105 -6 -17 -91 -75
-137 -93 -15 -5 -16 -3 -2 35 l14 41 -20 -18 c-11 -10 -18 -25 -15 -32 2 -8 1
-11 -4 -8 -13 7 -88 -33 -95 -51 -3 -8 -15 -14 -26 -14 -14 0 -20 -7 -20 -22
0 -19 -2 -20 -10 -8 -11 16 -14 258 -4 284 7 17 79 68 154 107 25 13 47 27 50
30 3 3 46 27 95 54 50 26 106 58 125 69 50 31 94 54 103 55 4 1 7 -70 6 -156z
m-110 -204 c-15 -9 -32 -2 -24 11 3 5 13 6 21 3 12 -4 13 -8 3 -14z"/>
<path d="M4781 1135 c-90 -52 -168 -95 -173 -95 -21 0 -4 -21 36 -45 l44 -26
172 99 c95 54 172 102 173 107 0 9 -70 54 -83 55 -3 0 -80 -43 -169 -95z"/>
<path d="M1326 796 l-38 -24 73 -42 c41 -23 163 -94 271 -157 l197 -115 41 23
c22 12 40 25 40 28 0 8 -525 311 -537 311 -4 0 -25 -11 -47 -24z"/>
<path d="M2770 632 c0 -15 41 -43 178 -120 97 -56 201 -115 230 -132 47 -28
52 -29 52 -11 0 14 -47 46 -192 129 -106 60 -210 119 -230 132 -37 21 -38 21
-38 2z"/>
<path d="M1170 417 c-69 -40 -169 -97 -222 -127 -71 -39 -98 -59 -98 -73 0
-23 -13 -29 155 69 77 45 176 101 220 125 44 25 81 52 83 62 2 9 0 17 -5 17
-4 0 -64 -33 -133 -73z"/>
</g>
</svg>
