<?xml version="1.0" encoding="UTF-8"?>
<svg xmlns="http://www.w3.org/2000/svg" xmlns:xlink="http://www.w3.org/1999/xlink" width="50px" height="50px" viewBox="0 0 50 50" version="1.1">
<g id="surface1">
<path style=" stroke:none;fill-rule:nonzero;fill:rgb(1.176471%,0.392157%,1.568627%);fill-opacity:1;" d="M 44.875 24.097656 C 43.652344 23.628906 41.988281 23.335938 40.21875 23.253906 C 43.386719 21.914062 45.160156 18.914062 44.171875 16.554688 C 43.183594 14.1875 39.78125 13.347656 36.597656 14.679688 C 35.78125 15.019531 34.828125 15.570312 33.882812 16.238281 C 35.453125 14.558594 36.730469 12.667969 37.324219 11.113281 C 38.90625 7 36.847656 2.363281 32.730469 0.78125 C 28.617188 -0.796875 23.976562 1.269531 22.398438 5.382812 C 22.082031 6.195312 21.851562 7.214844 21.707031 8.320312 C 20.238281 5.621094 17.53125 4.1875 15.355469 5.09375 C 12.988281 6.085938 12.148438 9.488281 13.484375 12.671875 C 13.574219 12.882812 13.679688 13.113281 13.796875 13.34375 C 12.777344 12.621094 11.761719 12.039062 10.863281 11.691406 C 6.746094 10.109375 2.113281 12.175781 0.535156 16.289062 C -1.050781 20.410156 1.015625 25.039062 5.132812 26.621094 C 6.042969 26.96875 7.203125 27.214844 8.464844 27.363281 C 5.351562 28.722656 3.617188 31.683594 4.59375 34.023438 C 5.582031 36.390625 8.984375 37.234375 12.171875 35.898438 C 12.226562 35.875 12.277344 35.847656 12.335938 35.824219 C 11.5625 36.886719 10.953125 37.949219 10.589844 38.882812 C 9.007812 43 11.070312 47.636719 15.1875 49.21875 C 19.300781 50.792969 23.933594 48.730469 25.515625 44.621094 C 26.035156 43.277344 26.335938 41.40625 26.378906 39.4375 C 26.476562 39.742188 26.578125 40.027344 26.6875 40.28125 C 28.015625 43.46875 31.027344 45.253906 33.394531 44.261719 C 35.765625 43.273438 36.601562 39.875 35.273438 36.691406 C 35.265625 36.679688 35.261719 36.667969 35.253906 36.652344 C 36.582031 37.726562 37.957031 38.578125 39.136719 39.03125 C 43.253906 40.605469 47.894531 38.546875 49.476562 34.433594 C 51.046875 30.316406 48.988281 25.683594 44.875 24.097656 Z M 37.058594 15.777344 C 39.425781 14.789062 41.957031 15.414062 42.691406 17.171875 C 43.429688 18.933594 42.101562 21.171875 39.730469 22.167969 C 37.992188 22.890625 34.316406 23.523438 32.183594 23.113281 C 32.09375 22.796875 31.992188 22.488281 31.851562 22.179688 C 31.605469 21.636719 31.300781 21.136719 30.953125 20.683594 C 32.054688 18.847656 35.253906 16.53125 37.058594 15.777344 Z M 24.308594 6.117188 C 25.488281 3.058594 28.933594 1.519531 31.996094 2.695312 C 35.058594 3.871094 36.589844 7.316406 35.417969 10.378906 C 34.441406 12.917969 30.730469 17.464844 27.742188 18.273438 C 26.964844 17.96875 26.132812 17.8125 25.289062 17.78125 C 23.003906 15.714844 23.238281 8.902344 24.308594 6.117188 Z M 15.972656 6.578125 C 17.738281 5.84375 19.976562 7.171875 20.96875 9.542969 C 21.171875 10.023438 21.363281 10.65625 21.53125 11.359375 C 21.554688 12.773438 21.722656 14.195312 22.050781 15.492188 C 22.050781 17.035156 21.777344 18.316406 21.019531 18.628906 C 19.257812 19.367188 15.574219 14.582031 14.582031 12.214844 C 13.589844 9.84375 14.214844 7.316406 15.972656 6.578125 Z M 5.867188 24.707031 C 2.800781 23.535156 1.269531 20.085938 2.445312 17.023438 C 3.621094 13.964844 7.066406 12.425781 10.128906 13.605469 C 13.101562 14.742188 18.800781 19.621094 18.078125 22.710938 C 18.03125 22.847656 17.980469 22.988281 17.941406 23.128906 C 16.585938 26.050781 8.882812 25.867188 5.867188 24.707031 Z M 23.609375 43.882812 C 22.433594 46.941406 18.984375 48.476562 15.921875 47.300781 C 12.859375 46.128906 11.324219 42.679688 12.496094 39.617188 C 13.601562 36.746094 18.207031 31.296875 21.300781 31.597656 C 21.71875 31.847656 22.164062 32.046875 22.617188 32.207031 C 24.910156 34.269531 24.679688 41.082031 23.609375 43.882812 Z M 19.914062 27.496094 C 18.652344 24.652344 19.925781 21.3125 22.773438 20.054688 C 25.617188 18.785156 28.953125 20.066406 30.21875 22.914062 C 31.4375 25.660156 30.265625 28.863281 27.609375 30.214844 L 27.601562 30.214844 C 27.589844 30.21875 27.574219 30.234375 27.558594 30.242188 C 27.488281 30.277344 27.429688 30.324219 27.355469 30.355469 C 24.519531 31.621094 21.175781 30.335938 19.914062 27.496094 Z M 32.777344 42.789062 C 31.015625 43.519531 28.78125 42.191406 27.785156 39.820312 C 27.074219 38.121094 26.453125 34.5625 26.808594 32.417969 C 27.242188 32.3125 27.667969 32.171875 28.089844 31.992188 C 28.59375 31.765625 29.050781 31.492188 29.476562 31.179688 C 31.277344 32.386719 33.445312 35.410156 34.171875 37.148438 C 35.164062 39.519531 34.539062 42.046875 32.777344 42.789062 Z M 47.558594 33.695312 C 46.378906 36.757812 42.9375 38.292969 39.871094 37.121094 C 36.917969 35.984375 31.25 31.140625 31.914062 28.050781 C 31.992188 27.863281 32.066406 27.675781 32.125 27.484375 C 33.625 24.679688 41.160156 24.871094 44.140625 26.011719 C 47.199219 27.183594 48.734375 30.640625 47.558594 33.695312 Z M 47.558594 33.695312 "/>
</g>
</svg>
