<svg id="SvgjsSvg1001" width="288" height="288" xmlns="http://www.w3.org/2000/svg" version="1.1" xmlns:xlink="http://www.w3.org/1999/xlink" xmlns:svgjs="http://svgjs.com/svgjs"><defs id="SvgjsDefs1002"></defs><g id="SvgjsG1008"><svg xmlns="http://www.w3.org/2000/svg" width="288" height="288" viewBox="0 0 70 70"><path fill="#a332ff" d="M 62.824219 33.734375 C 61.113281 33.082031 58.785156 32.667969 56.304688 32.554688 C 60.742188 30.679688 63.222656 26.480469 61.84375 23.179688 C 60.453125 19.863281 55.695312 18.6875 51.234375 20.550781 C 50.09375 21.027344 48.761719 21.796875 47.433594 22.734375 C 49.632812 20.382812 51.425781 17.734375 52.253906 15.558594 C 54.472656 9.796875 51.585938 3.3125 45.824219 1.09375 C 40.0625 -1.117188 33.566406 1.773438 31.359375 7.535156 C 30.914062 8.671875 30.59375 10.097656 30.390625 11.648438 C 28.335938 7.867188 24.546875 5.863281 21.5 7.132812 C 18.183594 8.519531 17.011719 13.285156 18.878906 17.738281 C 19.003906 18.039062 19.152344 18.359375 19.3125 18.679688 C 17.886719 17.667969 16.464844 16.855469 15.210938 16.367188 C 9.445312 14.152344 2.957031 17.042969 0.746094 22.804688 C -1.46875 28.574219 1.421875 35.058594 7.183594 37.273438 C 8.457031 37.757812 10.082031 38.101562 11.851562 38.308594 C 7.488281 40.210938 5.0625 44.355469 6.433594 47.632812 C 7.816406 50.945312 12.578125 52.125 17.039062 50.257812 C 17.113281 50.226562 17.191406 50.1875 17.269531 50.152344 C 16.1875 51.644531 15.332031 53.128906 14.824219 54.433594 C 12.613281 60.203125 15.5 66.6875 21.261719 68.90625 C 27.023438 71.113281 33.507812 68.226562 35.722656 62.46875 C 36.449219 60.589844 36.871094 57.96875 36.929688 55.214844 C 37.066406 55.636719 37.210938 56.035156 37.359375 56.394531 C 39.222656 60.855469 43.441406 63.359375 46.753906 61.96875 C 50.070312 60.585938 51.246094 55.828125 49.382812 51.367188 C 49.371094 51.347656 49.367188 51.332031 49.355469 51.316406 C 51.214844 52.816406 53.140625 54.007812 54.792969 54.644531 C 60.554688 56.851562 67.050781 53.96875 69.265625 48.207031 C 71.464844 42.441406 68.582031 35.953125 62.824219 33.734375 Z M 51.882812 22.085938 C 55.195312 20.703125 58.738281 21.578125 59.769531 24.039062 C 60.800781 26.503906 58.941406 29.640625 55.621094 31.03125 C 53.191406 32.046875 48.042969 32.933594 45.058594 32.359375 C 44.929688 31.917969 44.785156 31.480469 44.589844 31.050781 C 44.25 30.289062 43.820312 29.59375 43.335938 28.957031 C 44.878906 26.386719 49.355469 23.144531 51.882812 22.085938 Z M 34.03125 8.5625 C 35.683594 4.28125 40.507812 2.128906 44.796875 3.773438 C 49.078125 5.421875 51.226562 10.242188 49.585938 14.53125 C 48.21875 18.085938 43.019531 24.449219 38.835938 25.582031 C 37.75 25.160156 36.589844 24.9375 35.40625 24.894531 C 32.203125 22.003906 32.535156 12.464844 34.03125 8.5625 Z M 22.363281 9.210938 C 24.835938 8.183594 27.96875 10.039062 29.359375 13.359375 C 29.640625 14.035156 29.910156 14.917969 30.144531 15.902344 C 30.175781 17.882812 30.410156 19.875 30.875 21.6875 C 30.875 23.847656 30.488281 25.640625 29.429688 26.082031 C 26.960938 27.113281 21.804688 20.417969 20.417969 17.097656 C 19.023438 13.777344 19.902344 10.242188 22.363281 9.210938 Z M 8.210938 34.589844 C 3.921875 32.949219 1.773438 28.121094 3.425781 23.832031 C 5.070312 19.546875 9.894531 17.394531 14.179688 19.046875 C 18.339844 20.640625 26.320312 27.46875 25.308594 31.796875 C 25.242188 31.988281 25.175781 32.183594 25.117188 32.378906 C 23.21875 36.46875 12.4375 36.214844 8.210938 34.589844 Z M 33.050781 61.4375 C 31.40625 65.71875 26.578125 67.867188 22.289062 66.222656 C 18.003906 64.578125 15.851562 59.75 17.496094 55.464844 C 19.039062 51.445312 25.488281 43.816406 29.820312 44.238281 C 30.40625 44.585938 31.027344 44.867188 31.664062 45.089844 C 34.875 47.976562 34.554688 57.515625 33.050781 61.4375 Z M 27.878906 38.492188 C 26.109375 34.515625 27.898438 29.835938 31.878906 28.074219 C 35.863281 26.300781 40.535156 28.089844 42.308594 32.078125 C 44.015625 35.925781 42.371094 40.40625 38.652344 42.296875 L 38.644531 42.296875 C 38.625 42.308594 38.605469 42.328125 38.582031 42.339844 C 38.484375 42.386719 38.402344 42.453125 38.300781 42.5 C 34.328125 44.269531 29.648438 42.472656 27.878906 38.492188 Z M 45.886719 59.90625 C 43.421875 60.929688 40.292969 59.070312 38.898438 55.746094 C 37.90625 53.367188 37.03125 48.386719 37.53125 45.382812 C 38.140625 45.238281 38.738281 45.042969 39.324219 44.785156 C 40.027344 44.472656 40.671875 44.089844 41.265625 43.648438 C 43.789062 45.339844 46.824219 49.574219 47.839844 52.007812 C 49.230469 55.328125 48.351562 58.863281 45.886719 59.90625 Z M 66.582031 47.175781 C 64.929688 51.457031 60.109375 53.609375 55.820312 51.96875 C 51.683594 50.375 43.75 43.597656 44.683594 39.273438 C 44.792969 39.007812 44.890625 38.746094 44.976562 38.476562 C 47.074219 34.550781 57.625 34.816406 61.796875 36.417969 C 66.078125 38.058594 68.230469 42.894531 66.582031 47.175781 Z M 66.582031 47.175781 " class="color030104 svgShape"></path></svg></g></svg>