<?xml version="1.0" encoding="UTF-8"?>
<svg xmlns="http://www.w3.org/2000/svg" xmlns:xlink="http://www.w3.org/1999/xlink" width="44px" height="40px" viewBox="0 0 44 40" version="1.1">
<g id="surface1">
<path style=" stroke:none;fill-rule:nonzero;fill:rgb(0%,0%,0%);fill-opacity:1;" d="M 13.65625 2.203125 C 13.128906 2.375 12.761719 2.703125 12.519531 3.226562 L 12.40625 3.46875 L 12.40625 7.886719 C 12.40625 13.515625 12.273438 12.898438 13.890625 14.804688 C 14.480469 15.492188 14.984375 16.09375 15.019531 16.136719 C 15.078125 16.207031 15.027344 16.265625 14.628906 16.566406 C 13.644531 17.316406 12.636719 18.40625 11.914062 19.5 C 11.546875 20.054688 10.921875 21.300781 10.691406 21.925781 C 9.679688 24.726562 9.761719 27.820312 10.921875 30.605469 C 12.320312 33.945312 15.378906 36.597656 18.894531 37.511719 C 21.757812 38.253906 24.671875 37.96875 27.296875 36.691406 C 29.199219 35.765625 30.917969 34.25 32.074219 32.480469 C 34.089844 29.394531 34.566406 25.539062 33.347656 22.050781 C 33.148438 21.46875 32.574219 20.277344 32.234375 19.734375 C 31.59375 18.703125 30.625 17.59375 29.734375 16.859375 C 29.480469 16.648438 29.285156 16.453125 29.300781 16.421875 C 29.320312 16.394531 29.75 15.71875 30.261719 14.929688 C 30.773438 14.136719 31.253906 13.335938 31.328125 13.148438 C 31.613281 12.425781 31.625 12.269531 31.609375 7.675781 C 31.59375 3.699219 31.589844 3.457031 31.496094 3.261719 C 31.234375 2.703125 30.871094 2.375 30.328125 2.199219 C 30.039062 2.113281 29.664062 2.105469 21.984375 2.113281 C 14.402344 2.113281 13.925781 2.117188 13.65625 2.203125 Z M 30.125 3.390625 C 30.453125 3.59375 30.441406 3.453125 30.441406 7.769531 C 30.441406 10.011719 30.417969 11.839844 30.390625 12.035156 C 30.363281 12.21875 30.292969 12.503906 30.238281 12.65625 C 30.144531 12.898438 28.503906 15.519531 28.324219 15.714844 C 28.265625 15.769531 28.160156 15.730469 27.726562 15.5 C 25.882812 14.515625 24.09375 14.074219 22 14.074219 C 20.003906 14.074219 18.269531 14.480469 16.527344 15.363281 L 16.109375 15.574219 L 15.972656 15.40625 C 15.894531 15.320312 15.390625 14.722656 14.851562 14.085938 C 13.789062 12.847656 13.710938 12.714844 13.609375 12.035156 C 13.574219 11.8125 13.558594 10.261719 13.570312 7.699219 C 13.582031 3.734375 13.582031 3.703125 13.691406 3.5625 C 13.746094 3.484375 13.855469 3.386719 13.921875 3.355469 C 14.019531 3.304688 15.789062 3.289062 22 3.289062 C 29.890625 3.289062 29.957031 3.289062 30.125 3.390625 Z M 23.535156 15.347656 C 24.988281 15.542969 26.523438 16.101562 27.753906 16.878906 C 29.289062 17.847656 30.601562 19.222656 31.476562 20.785156 C 32.789062 23.128906 33.164062 26.023438 32.488281 28.644531 C 31.359375 33.042969 27.582031 36.238281 23.003906 36.683594 C 19.3125 37.050781 15.53125 35.378906 13.332031 32.425781 C 11.878906 30.472656 11.1875 28.371094 11.1875 25.949219 C 11.195312 23.480469 11.96875 21.28125 13.511719 19.320312 C 13.925781 18.792969 14.871094 17.863281 15.398438 17.460938 C 17.738281 15.6875 20.578125 14.949219 23.535156 15.347656 Z M 23.535156 15.347656 "/>
<path style=" stroke:none;fill-rule:nonzero;fill:rgb(0%,0%,0%);fill-opacity:1;" d="M 18.691406 5.191406 C 18.601562 5.242188 18.5 5.335938 18.476562 5.390625 C 18.433594 5.457031 18.417969 6.613281 18.417969 8.984375 C 18.417969 12.40625 18.417969 12.476562 18.519531 12.605469 C 18.648438 12.765625 18.929688 12.867188 19.128906 12.820312 C 19.207031 12.804688 19.339844 12.71875 19.421875 12.636719 L 19.570312 12.480469 L 19.585938 9.039062 C 19.601562 5.210938 19.609375 5.335938 19.261719 5.167969 C 19.039062 5.0625 18.890625 5.066406 18.691406 5.191406 Z M 18.691406 5.191406 "/>
<path style=" stroke:none;fill-rule:nonzero;fill:rgb(0%,0%,0%);fill-opacity:1;" d="M 24.726562 5.167969 C 24.394531 5.339844 24.398438 5.226562 24.414062 9.039062 L 24.429688 12.480469 L 24.578125 12.636719 C 24.660156 12.71875 24.792969 12.804688 24.871094 12.820312 C 25.070312 12.867188 25.351562 12.765625 25.480469 12.605469 C 25.582031 12.476562 25.582031 12.40625 25.582031 8.972656 C 25.582031 5.128906 25.597656 5.335938 25.273438 5.164062 C 25.085938 5.066406 24.929688 5.066406 24.726562 5.167969 Z M 24.726562 5.167969 "/>
<path style=" stroke:none;fill-rule:nonzero;fill:rgb(0%,0%,0%);fill-opacity:1;" d="M 20.644531 17.136719 C 18.609375 17.464844 16.902344 18.359375 15.472656 19.847656 C 12.902344 22.511719 12.265625 26.496094 13.871094 29.835938 C 14.398438 30.917969 15.230469 32.007812 16.121094 32.757812 C 20.464844 36.421875 26.941406 35.324219 29.8125 30.433594 C 30.542969 29.1875 30.933594 27.828125 30.988281 26.308594 C 31.066406 24.386719 30.570312 22.65625 29.464844 20.988281 C 29.003906 20.292969 27.933594 19.203125 27.21875 18.691406 C 26.257812 18.007812 24.960938 17.457031 23.761719 17.210938 C 23.035156 17.066406 21.351562 17.023438 20.644531 17.136719 Z M 23.105469 18.300781 C 24.796875 18.535156 26.390625 19.34375 27.601562 20.582031 C 28.660156 21.660156 29.355469 22.976562 29.679688 24.511719 C 29.828125 25.226562 29.84375 26.609375 29.710938 27.3125 C 29.519531 28.289062 29.167969 29.222656 28.703125 29.984375 C 27.796875 31.46875 26.3125 32.691406 24.710938 33.269531 C 21.90625 34.285156 18.773438 33.644531 16.632812 31.625 C 15.390625 30.445312 14.628906 29.039062 14.289062 27.3125 C 14.15625 26.609375 14.171875 25.226562 14.320312 24.511719 C 14.800781 22.230469 16.164062 20.347656 18.152344 19.230469 C 18.941406 18.78125 19.972656 18.425781 20.839844 18.300781 C 21.292969 18.238281 22.644531 18.230469 23.105469 18.300781 Z M 23.105469 18.300781 "/>
<path style=" stroke:none;fill-rule:nonzero;fill:rgb(0%,0%,0%);fill-opacity:1;" d="M 21.304688 21.992188 L 20.644531 24.101562 L 18.332031 24.109375 L 16.019531 24.125 L 17.832031 25.527344 C 19.585938 26.894531 19.636719 26.9375 19.589844 27.070312 C 19.324219 27.871094 18.371094 30.957031 18.386719 30.972656 C 18.398438 30.988281 19.203125 30.488281 20.167969 29.875 C 21.128906 29.261719 21.960938 28.757812 22 28.757812 C 22.039062 28.757812 22.871094 29.261719 23.832031 29.875 C 24.796875 30.488281 25.601562 30.988281 25.613281 30.972656 C 25.628906 30.957031 24.746094 28.097656 24.433594 27.148438 L 24.363281 26.9375 L 26.167969 25.527344 L 27.980469 24.125 L 25.667969 24.109375 L 23.355469 24.101562 L 22.695312 21.992188 C 22.332031 20.832031 22.019531 19.886719 22 19.886719 C 21.980469 19.886719 21.667969 20.832031 21.304688 21.992188 Z M 22.25 24.539062 L 22.476562 25.28125 L 23.5 25.292969 L 24.515625 25.308594 L 23.773438 25.890625 C 23.359375 26.207031 23.019531 26.484375 23.007812 26.503906 C 22.996094 26.527344 23.109375 26.921875 23.257812 27.390625 C 23.40625 27.851562 23.523438 28.238281 23.519531 28.246094 C 23.507812 28.253906 23.183594 28.050781 22.777344 27.796875 C 22.378906 27.542969 22.03125 27.339844 22 27.339844 C 21.96875 27.339844 21.621094 27.542969 21.222656 27.796875 C 20.816406 28.050781 20.492188 28.253906 20.480469 28.246094 C 20.476562 28.238281 20.59375 27.851562 20.742188 27.390625 C 20.890625 26.921875 21.003906 26.527344 20.992188 26.503906 C 20.980469 26.484375 20.640625 26.207031 20.226562 25.890625 L 19.484375 25.308594 L 20.5 25.292969 L 21.523438 25.28125 L 21.75 24.539062 C 21.871094 24.125 21.984375 23.792969 22 23.792969 C 22.015625 23.792969 22.128906 24.125 22.25 24.539062 Z M 22.25 24.539062 "/>
</g>
</svg>
