<svg width="0" height="0" class="hidden">
  <symbol fill="none" xmlns="http://www.w3.org/2000/svg" viewBox="0 0 24 24" id="attributions">
    <path d="M6 8C6.74028 8 7.38663 7.5978 7.73244 7H14C15.1046 7 16 7.89543 16 9C16 10.1046 15.1046 11 14 11H10C7.79086 11 6 12.7909 6 15C6 17.2091 7.79086 19 10 19H16.2676C16.6134 19.5978 17.2597 20 18 20C19.1046 20 20 19.1046 20 18C20 16.8954 19.1046 16 18 16C17.2597 16 16.6134 16.4022 16.2676 17H10C8.89543 17 8 16.1046 8 15C8 13.8954 8.89543 13 10 13H14C16.2091 13 18 11.2091 18 9C18 6.79086 16.2091 5 14 5H7.73244C7.38663 4.4022 6.74028 4 6 4C4.89543 4 4 4.89543 4 6C4 7.10457 4.89543 8 6 8Z" fill="currentColor"></path>
  </symbol>
  <symbol version="1.1" id="chevron" xmlns="http://www.w3.org/2000/svg" xmlns:xlink="http://www.w3.org/1999/xlink" x="0px" y="0px" xml:space="preserve" viewBox="0 0 511.147 511.147">
    <g transform="translate(1 1)">
      <g>
        <path d="M507.587,231.175L260.12,9.308c-2.56-2.56-7.68-2.56-11.093,0L1.56,231.175c-1.707,0.853-2.56,3.413-2.56,5.973v85.333
			v85.333v85.333c0,3.413,1.707,6.827,5.12,7.68c3.413,1.707,6.827,0.853,9.387-0.853L255,283.228l241.493,215.893
			c1.707,1.707,4.267,2.56,5.973,2.56c0.853,0,2.56,0,2.56-0.853c3.413-0.853,5.12-4.267,5.12-7.68v-85.333v-85.333v-85.333
			C510.147,235.442,509.293,232.882,507.587,231.175z M255,27.228l238.933,214.187v62.293L260.973,94.642
			c-1.707-1.707-4.267-2.56-5.973-2.56s-4.267,0.853-5.973,2.56L16.067,303.502v-62.087L255,27.228z M16.067,327.011L255,112.562
			l238.933,214.187v62.293l-232.96-209.067c-1.707-1.707-4.267-2.56-5.973-2.56s-4.267,0.853-5.973,2.56L16.067,388.836V327.011z
			 M493.933,474.375l-232.96-209.067c-1.707-1.707-4.267-2.56-5.973-2.56s-4.267,0.853-5.973,2.56L16.067,474.375v-62.031
			L255,197.895l238.933,214.187V474.375z"></path>
      </g>
    </g>
    <g></g>
    <g></g>
    <g></g>
    <g></g>
    <g></g>
    <g></g>
    <g></g>
    <g></g>
    <g></g>
    <g></g>
    <g></g>
    <g></g>
    <g></g>
    <g></g>
    <g></g>
  </symbol>
  <symbol version="1.1" id="clock" xmlns="http://www.w3.org/2000/svg" xmlns:xlink="http://www.w3.org/1999/xlink" x="0px" y="0px" xml:space="preserve" viewBox="0 0 488 488">
    <g transform="translate(0 -540.36)">
      <g>
        <g>
          <path d="M351.1,846.96l-97.1-67.9v-116.7c0-5.5-4.5-10-10-10s-10,4.5-10,10v122c0,3.3,1.6,6.3,4.3,8.2l101.4,70.9
				c1.7,1.2,3.7,1.8,5.7,1.8v0c3.1,0,6.2-1.5,8.2-4.4C356.7,856.36,355.6,850.16,351.1,846.96z"></path>
          <path d="M416.4,611.96L416.4,611.96c-46.2-46.2-107.4-71.6-172.4-71.6s-126.2,25.4-172.4,71.6C25.4,658.16,0,719.36,0,784.36
				s25.4,126.2,71.6,172.4c46.2,46.2,107.4,71.6,172.4,71.6s126.2-25.4,172.4-71.6s71.6-107.4,71.6-172.4S462.6,658.16,416.4,611.96
				z M254,1008.16L254,1008.16v-40.8c0-5.5-4.5-10-10-10s-10,4.5-10,10v40.8c-115.6-5.1-208.7-98.2-213.8-213.8H61
				c5.5,0,10-4.5,10-10s-4.5-10-10-10H20.2c5.1-115.6,98.2-208.7,213.8-213.8v40.8c0,5.5,4.5,10,10,10s10-4.5,10-10v-40.8
				c115.6,5.1,208.7,98.2,213.8,213.8H427c-5.5,0-10,4.5-10,10s4.5,10,10,10h40.8C462.7,909.96,369.6,1003.06,254,1008.16z"></path>
        </g>
      </g>
    </g>
    <g></g>
    <g></g>
    <g></g>
    <g></g>
    <g></g>
    <g></g>
    <g></g>
    <g></g>
    <g></g>
    <g></g>
    <g></g>
    <g></g>
    <g></g>
    <g></g>
    <g></g>
  </symbol>
  <symbol version="1.1" id="computer" xmlns="http://www.w3.org/2000/svg" xmlns:xlink="http://www.w3.org/1999/xlink" x="0px" y="0px" xml:space="preserve" viewBox="0 0 389.981 389.981">
    <g>
      <path d="M145.407,248.988l-2.775,26.209c-0.224,2.115,0.46,4.225,1.883,5.806c1.422,1.581,3.449,2.483,5.576,2.483h79.301
		c2.126,0,4.153-0.903,5.576-2.483c1.422-1.581,2.106-3.691,1.883-5.806l-2.775-26.209h98.777c15.374,0,27.881-12.507,27.881-27.881
		V27.881C360.733,12.507,348.225,0,332.852,0H40.63C25.256,0,12.749,12.507,12.749,27.881v193.226
		c0,15.374,12.507,27.881,27.881,27.881H145.407z M221.055,268.487h-62.629l2.064-19.499h58.5L221.055,268.487z M40.63,15h292.222
		c7.103,0,12.881,5.778,12.881,12.881V197.99H27.749V27.881C27.749,20.778,33.527,15,40.63,15z M27.749,221.107v-8.117h317.983
		v8.117c0,7.103-5.778,12.881-12.881,12.881H40.63C33.527,233.988,27.749,228.21,27.749,221.107z"></path>
      <path d="M332.645,333.876c1.36-2.24,1.453-5.027,0.244-7.352l-14.813-28.499c-1.291-2.483-3.856-4.041-6.655-4.041H62.061
		c-2.798,0-5.364,1.558-6.655,4.041l-14.813,28.499c-1.208,2.325-1.116,5.112,0.244,7.352s3.791,3.607,6.411,3.607h278.986
		C328.854,337.484,331.285,336.116,332.645,333.876z M59.599,322.484l7.016-13.499h240.251l7.017,13.499H59.599z"></path>
      <path d="M345.733,350.982h-12c-17.368,0-31.499,14.13-31.499,31.499c0,4.142,3.358,7.5,7.5,7.5h59.997c4.142,0,7.5-3.358,7.5-7.5
		C377.232,365.113,363.102,350.982,345.733,350.982z M319.04,374.981c2.735-5.337,8.295-8.999,14.693-8.999h12
		c6.398,0,11.958,3.662,14.694,8.999H319.04z"></path>
    </g>
    <g></g>
    <g></g>
    <g></g>
    <g></g>
    <g></g>
    <g></g>
    <g></g>
    <g></g>
    <g></g>
    <g></g>
    <g></g>
    <g></g>
    <g></g>
    <g></g>
    <g></g>
  </symbol>
  <symbol version="1.1" xmlns="http://www.w3.org/2000/svg" xmlns:xlink="http://www.w3.org/1999/xlink" enable-background="new 0 0 297 297" viewBox="0 0 297 297" id="easy">
    <g>
      <path d="m252.36,9.131c-21.087-12.173-46.264-12.175-67.349,0l-140.371,81.044c-21.085,12.173-33.674,33.978-33.674,58.326 0,24.347 12.589,46.152 33.674,58.325l140.372,81.043c10.544,6.087 22.107,9.131 33.674,9.131 11.565-0.001 23.132-3.045 33.673-9.13 21.086-12.174 33.675-33.978 33.675-58.327v-162.086c0.001-24.348-12.588-46.152-33.674-58.326zm14.423,220.412c0,17.389-8.99,32.96-24.049,41.654-15.058,8.692-33.037,8.693-48.097-0.001l-140.371-81.043c-15.058-8.694-24.049-24.266-24.049-41.653 0-17.388 8.99-32.959 24.049-41.653l140.372-81.044c7.529-4.347 15.789-6.52 24.049-6.52 8.259,0 16.519,2.173 24.049,6.52 15.058,8.694 24.049,24.266 24.049,41.654v162.086z"></path>
      <path d="m174.93,65.798c-45.601,0-82.701,37.1-82.701,82.702 0,45.601 37.1,82.701 82.701,82.701 45.602,0 82.702-37.1 82.702-82.701 0-45.602-37.1-82.702-82.702-82.702zm0,146.152c-34.987,0-63.45-28.463-63.45-63.45 0-34.987 28.463-63.451 63.45-63.451 34.987,0 63.451,28.464 63.451,63.451-0.001,34.987-28.465,63.45-63.451,63.45z"></path>
      <path d="m174.93,107.101c-22.827,0-41.4,18.572-41.4,41.399 0,22.827 18.572,41.399 41.4,41.399 22.828,0 41.4-18.572 41.4-41.399 0-22.827-18.572-41.399-41.4-41.399zm0,63.547c-12.213,0-22.148-9.935-22.148-22.148 0-12.213 9.935-22.148 22.148-22.148 12.213,0 22.149,9.935 22.149,22.148-0.001,12.213-9.937,22.148-22.149,22.148z"></path>
    </g>
  </symbol>
  <symbol version="1.1" xmlns="http://www.w3.org/2000/svg" xmlns:xlink="http://www.w3.org/1999/xlink" enable-background="new 0 0 512 512" viewBox="0 0 512 512" id="growth">
    <g>
      <g>
        <path d="m266.1,237.1h-82.2c-6.2,0-10.4,5.2-10.4,10.4v243c0,6.3 5.2,10.4 10.4,10.4h82.2c5.2,0 10.4-4.2 10.4-10.4v-243c0-6.2-5.2-10.4-10.4-10.4zm-10.4,243h-61.4v-222.1h61.4v222.1z"></path>
        <path d="M103.7,272.6H21.5c-6.2,0-10.4,5.2-10.4,10.4v207.6c0,6.3,5.2,10.4,10.4,10.4h82.2c5.2,0,10.4-4.2,10.4-10.4V283    C114.1,276.7,108.9,272.6,103.7,272.6z M93.3,480.1H31.9V293.4h61.4V480.1z"></path>
        <path d="m499.2,157.8l-103-142.9c-4.2-5.2-12.5-5.2-16.6,0l-103,142.9c-4.2,5.9-2.6,15.6 8.3,15.6h51v317.1c0,6.3 5.2,10.4 10.4,10.4h82.2c5.2,0 10.4-4.2 11.4-10.4v-317h51c10.2,0 12.4-10.4 8.3-15.7zm-70.8-5.2c-6.2,0-10.4,5.2-10.4,10.4v317.1h-61.4-1v-317.1c0-6.3-5.2-10.4-10.4-10.4h-41.6l83.2-114.7 83.2,114.7h-41.6z"></path>
      </g>
    </g>
  </symbol>
  <symbol xmlns="http://www.w3.org/2000/svg" viewBox="0 0 1024 1024" id="line">
    <path d="M904 476H120c-4.4 0-8 3.6-8 8v56c0 4.4 3.6 8 8 8h784c4.4 0 8-3.6 8-8v-56c0-4.4-3.6-8-8-8z"></path>
  </symbol>
  <symbol version="1.1" id="logo" xmlns="http://www.w3.org/2000/svg" xmlns:xlink="http://www.w3.org/1999/xlink" x="0px" y="0px" xml:space="preserve" viewBox="0 0 16.683 16.683">
    <g>
      <path d="M14.973,8.04c-0.408-0.156-0.963-0.254-1.554-0.281c1.058-0.447,1.649-1.448,1.32-2.235
		c-0.331-0.79-1.465-1.07-2.528-0.626c-0.272,0.113-0.59,0.297-0.906,0.52c0.524-0.56,0.951-1.191,1.149-1.71
		c0.528-1.373-0.16-2.919-1.533-3.447C9.548-0.266,8,0.423,7.474,1.796c-0.106,0.271-0.183,0.611-0.231,0.98
		C6.753,1.875,5.85,1.397,5.124,1.7c-0.79,0.33-1.07,1.466-0.625,2.528c0.03,0.071,0.066,0.148,0.104,0.224
		c-0.34-0.241-0.679-0.435-0.978-0.551c-1.374-0.528-2.92,0.161-3.447,1.534C-0.35,6.81,0.339,8.355,1.712,8.883
		C2.016,8.999,2.403,9.081,2.825,9.13c-1.04,0.453-1.618,1.441-1.292,2.222c0.33,0.79,1.465,1.071,2.528,0.626
		c0.018-0.008,0.036-0.017,0.055-0.025c-0.258,0.355-0.462,0.709-0.583,1.02c-0.527,1.375,0.161,2.921,1.534,3.449
		c1.373,0.526,2.919-0.162,3.447-1.534c0.173-0.448,0.273-1.072,0.287-1.729c0.033,0.101,0.067,0.196,0.103,0.281
		c0.444,1.064,1.449,1.66,2.239,1.329c0.79-0.33,1.07-1.464,0.626-2.527c-0.002-0.004-0.003-0.008-0.006-0.012
		c0.443,0.358,0.902,0.642,1.296,0.793c1.373,0.526,2.921-0.161,3.449-1.534C17.032,10.115,16.345,8.569,14.973,8.04z M12.365,5.264
		c0.79-0.33,1.634-0.121,1.88,0.465c0.246,0.588-0.198,1.335-0.989,1.667c-0.579,0.242-1.806,0.453-2.517,0.316
		c-0.031-0.105-0.065-0.209-0.112-0.312c-0.081-0.181-0.183-0.347-0.299-0.499C10.696,6.289,11.763,5.516,12.365,5.264z
		 M8.111,2.041c0.393-1.021,1.543-1.534,2.565-1.142c1.021,0.393,1.533,1.542,1.142,2.564c-0.326,0.847-1.565,2.364-2.562,2.634
		C8.997,5.996,8.72,5.943,8.438,5.933C7.675,5.244,7.754,2.971,8.111,2.041z M5.33,2.195C5.919,1.95,6.666,2.393,6.997,3.184
		C7.064,3.345,7.128,3.555,7.184,3.79c0.008,0.472,0.064,0.947,0.174,1.379c0,0.515-0.092,0.942-0.344,1.047
		c-0.588,0.246-1.817-1.35-2.148-2.141C4.534,3.284,4.743,2.441,5.33,2.195z M1.957,8.244C0.935,7.853,0.423,6.702,0.816,5.68
		c0.392-1.021,1.542-1.534,2.563-1.141c0.992,0.38,2.894,2.008,2.653,3.039C6.016,7.624,6,7.67,5.986,7.717
		C5.534,8.692,2.964,8.631,1.957,8.244z M7.877,14.642c-0.392,1.021-1.543,1.533-2.565,1.141c-1.021-0.392-1.534-1.543-1.142-2.564
		c0.368-0.958,1.905-2.776,2.937-2.676c0.14,0.083,0.288,0.15,0.439,0.203C8.312,11.434,8.235,13.708,7.877,14.642z M6.644,9.174
		C6.223,8.226,6.649,7.111,7.598,6.691c0.949-0.423,2.063,0.004,2.485,0.954c0.407,0.917,0.015,1.985-0.871,2.436H9.21
		c-0.005,0.002-0.009,0.007-0.015,0.01c-0.023,0.011-0.043,0.027-0.067,0.038C8.181,10.551,7.066,10.122,6.644,9.174z
		 M10.936,14.277c-0.587,0.244-1.333-0.199-1.665-0.991c-0.237-0.567-0.445-1.754-0.326-2.47c0.145-0.034,0.287-0.081,0.427-0.142
		c0.168-0.075,0.321-0.166,0.463-0.271c0.601,0.403,1.325,1.412,1.567,1.992C11.733,13.186,11.524,14.029,10.936,14.277z
		 M15.868,11.243c-0.393,1.021-1.542,1.534-2.564,1.143c-0.986-0.38-2.877-1.995-2.655-3.026c0.026-0.063,0.05-0.126,0.07-0.19
		c0.5-0.936,3.015-0.872,4.009-0.491C15.748,9.07,16.261,10.223,15.868,11.243z"></path>
    </g>
    <g></g>
    <g></g>
    <g></g>
    <g></g>
    <g></g>
    <g></g>
    <g></g>
    <g></g>
    <g></g>
    <g></g>
    <g></g>
    <g></g>
    <g></g>
    <g></g>
    <g></g>
  </symbol>
  <symbol version="1.1" id="menu" xmlns="http://www.w3.org/2000/svg" xmlns:xlink="http://www.w3.org/1999/xlink" x="0px" y="0px" xml:space="preserve" viewBox="0 0 283.535 283.535">
    <g>
      <path d="M40.687,101.082C18.252,101.082,0,119.333,0,141.768s18.252,40.686,40.687,40.686s40.686-18.251,40.686-40.686
		S63.121,101.082,40.687,101.082z M40.687,164.453c-12.51,0-22.687-10.177-22.687-22.686s10.177-22.686,22.687-22.686
		c12.509,0,22.686,10.177,22.686,22.686S53.195,164.453,40.687,164.453z"></path>
      <path d="M141.768,101.082c-22.435,0-40.686,18.251-40.686,40.686s18.251,40.686,40.686,40.686s40.686-18.251,40.686-40.686
		S164.202,101.082,141.768,101.082z M141.768,164.453c-12.509,0-22.686-10.177-22.686-22.686s10.177-22.686,22.686-22.686
		s22.686,10.177,22.686,22.686S154.276,164.453,141.768,164.453z"></path>
      <path d="M242.849,101.082c-22.435,0-40.686,18.251-40.686,40.686s18.251,40.686,40.686,40.686s40.687-18.251,40.687-40.686
		S265.283,101.082,242.849,101.082z M242.849,164.453c-12.509,0-22.686-10.177-22.686-22.686s10.177-22.686,22.686-22.686
		c12.51,0,22.687,10.177,22.687,22.686S255.358,164.453,242.849,164.453z"></path>
    </g>
    <g></g>
    <g></g>
    <g></g>
    <g></g>
    <g></g>
    <g></g>
    <g></g>
    <g></g>
    <g></g>
    <g></g>
    <g></g>
    <g></g>
    <g></g>
    <g></g>
    <g></g>
  </symbol>
  <symbol version="1.1" id="quote" xmlns="http://www.w3.org/2000/svg" xmlns:xlink="http://www.w3.org/1999/xlink" x="0px" y="0px" enable-background="new 0 0 64 64" xml:space="preserve" viewBox="0 0 64 64">
    <g id="Quotemarks-left">
      <path d="M50.6292648,26.225668c-0.1288986-1.3934994-0.0303001-5.1816006,3.5985985-10.4492006
		c0.2745018-0.3975,0.2247009-0.9335995-0.1161957-1.2743998c-1.4795036-1.4794998-2.395504-2.4131002-3.0379982-3.0663996
		c-0.8448029-0.8614006-1.2305031-1.2539005-1.795002-1.7657003c-0.3769035-0.3388004-0.9472008-0.3446999-1.3281021-0.0125999
		c-6.3251991,5.5038996-13.3505974,16.8768997-12.3339958,30.8105011
		c0.5956955,8.1815987,6.5634956,14.1200981,14.1894951,14.1200981c7.8260994,0,14.1932983-6.3661995,14.1932983-14.1923981
		C63.9993629,32.845768,58.0736694,26.6543674,50.6292648,26.225668z M49.8060646,52.5879669
		c-6.5489006,0-11.6767998-5.1581993-12.1953011-12.2645988c0,0,0,0,0-0.0009995
		c-1.1435966-15.6709003,8.1718025-25.8496017,10.9863014-28.5449009c0.2743988,0.2705002,0.5878983,0.5887995,1.0498009,1.0594997
		c0.5565987,0.5664005,1.3183975,1.3417997,2.4706993,2.4981003c-4.4053001,6.7870998-3.5741997,11.6229992-3.2099991,12.3164005
		c0.1728973,0.3290997,0.5273972,0.5508003,0.8984985,0.5508003c6.7236023,0,12.1932983,5.469698,12.1932983,12.1933002
		C61.9993629,47.1182671,56.5296669,52.5879669,49.8060646,52.5879669z"></path>
      <path d="M15.1136675,26.225668c-0.1299-1.3896008-0.0341997-5.1748009,3.5985994-10.4492006
		c0.2735004-0.3975,0.2245998-0.9335995-0.1161995-1.2743998c-1.4766006-1.4765997-2.3915997-2.4091997-3.0332003-3.0625
		c-0.8476-0.8633003-1.2343998-1.2568998-1.7987995-1.7695999c-0.3769999-0.3388004-0.9473-0.3437004-1.3281002-0.0136003
		c-6.3251996,5.5039005-13.3515997,16.875-12.3369999,30.8115005v0.0009995
		c0.5977,8.1805992,6.5664001,14.1190987,14.1924,14.1190987c7.8261995,0,14.1934004-6.3661995,14.1934004-14.1923981
		C28.4847679,32.8448677,22.5589676,26.6524677,15.1136675,26.225668z M14.2913675,52.5879669
		c-6.5478001,0-11.6786995-5.1581993-12.1982002-12.2655983v0.0009995
		c-1.1406-15.6748009,8.1747999-25.8516006,10.9892006-28.5459003c0.2754002,0.2705002,0.5899,0.5908003,1.0528002,1.0625
		c0.5555992,0.5663996,1.3163996,1.3408003,2.4667988,2.4951c-4.4052992,6.7880993-3.5741997,11.6229992-3.2099991,12.3153992
		c0.1729002,0.3291016,0.5283003,0.5518017,0.8993998,0.5518017c6.7237005,0,12.1934004,5.469698,12.1934004,12.1933002
		C26.4847679,47.1182671,21.0150681,52.5879669,14.2913675,52.5879669z"></path>
    </g>
    <g></g>
    <g></g>
    <g></g>
    <g></g>
    <g></g>
    <g></g>
    <g></g>
    <g></g>
    <g></g>
    <g></g>
    <g></g>
    <g></g>
    <g></g>
    <g></g>
    <g></g>
  </symbol>
  <symbol version="1.1" id="search" xmlns="http://www.w3.org/2000/svg" xmlns:xlink="http://www.w3.org/1999/xlink" x="0px" y="0px" xml:space="preserve" viewBox="0 0 487.95 487.95">
    <g>
      <g>
        <path d="M481.8,453l-140-140.1c27.6-33.1,44.2-75.4,44.2-121.6C386,85.9,299.5,0.2,193.1,0.2S0,86,0,191.4s86.5,191.1,192.9,191.1
			c45.2,0,86.8-15.5,119.8-41.4l140.5,140.5c8.2,8.2,20.4,8.2,28.6,0C490,473.4,490,461.2,481.8,453z M41,191.4
			c0-82.8,68.2-150.1,151.9-150.1s151.9,67.3,151.9,150.1s-68.2,150.1-151.9,150.1S41,274.1,41,191.4z"></path>
      </g>
    </g>
    <g></g>
    <g></g>
    <g></g>
    <g></g>
    <g></g>
    <g></g>
    <g></g>
    <g></g>
    <g></g>
    <g></g>
    <g></g>
    <g></g>
    <g></g>
    <g></g>
    <g></g>
  </symbol>
  <symbol version="1.1" id="settings" xmlns="http://www.w3.org/2000/svg" xmlns:xlink="http://www.w3.org/1999/xlink" x="0px" y="0px" xml:space="preserve" viewBox="0 0 478.703 478.703">
    <g>
      <g>
        <path d="M454.2,189.101l-33.6-5.7c-3.5-11.3-8-22.2-13.5-32.6l19.8-27.7c8.4-11.8,7.1-27.9-3.2-38.1l-29.8-29.8
			c-5.6-5.6-13-8.7-20.9-8.7c-6.2,0-12.1,1.9-17.1,5.5l-27.8,19.8c-10.8-5.7-22.1-10.4-33.8-13.9l-5.6-33.2
			c-2.4-14.3-14.7-24.7-29.2-24.7h-42.1c-14.5,0-26.8,10.4-29.2,24.7l-5.8,34c-11.2,3.5-22.1,8.1-32.5,13.7l-27.5-19.8
			c-5-3.6-11-5.5-17.2-5.5c-7.9,0-15.4,3.1-20.9,8.7l-29.9,29.8c-10.2,10.2-11.6,26.3-3.2,38.1l20,28.1
			c-5.5,10.5-9.9,21.4-13.3,32.7l-33.2,5.6c-14.3,2.4-24.7,14.7-24.7,29.2v42.1c0,14.5,10.4,26.8,24.7,29.2l34,5.8
			c3.5,11.2,8.1,22.1,13.7,32.5l-19.7,27.4c-8.4,11.8-7.1,27.9,3.2,38.1l29.8,29.8c5.6,5.6,13,8.7,20.9,8.7c6.2,0,12.1-1.9,17.1-5.5
			l28.1-20c10.1,5.3,20.7,9.6,31.6,13l5.6,33.6c2.4,14.3,14.7,24.7,29.2,24.7h42.2c14.5,0,26.8-10.4,29.2-24.7l5.7-33.6
			c11.3-3.5,22.2-8,32.6-13.5l27.7,19.8c5,3.6,11,5.5,17.2,5.5l0,0c7.9,0,15.3-3.1,20.9-8.7l29.8-29.8c10.2-10.2,11.6-26.3,3.2-38.1
			l-19.8-27.8c5.5-10.5,10.1-21.4,13.5-32.6l33.6-5.6c14.3-2.4,24.7-14.7,24.7-29.2v-42.1
			C478.9,203.801,468.5,191.501,454.2,189.101z M451.9,260.401c0,1.3-0.9,2.4-2.2,2.6l-42,7c-5.3,0.9-9.5,4.8-10.8,9.9
			c-3.8,14.7-9.6,28.8-17.4,41.9c-2.7,4.6-2.5,10.3,0.6,14.7l24.7,34.8c0.7,1,0.6,2.5-0.3,3.4l-29.8,29.8c-0.7,0.7-1.4,0.8-1.9,0.8
			c-0.6,0-1.1-0.2-1.5-0.5l-34.7-24.7c-4.3-3.1-10.1-3.3-14.7-0.6c-13.1,7.8-27.2,13.6-41.9,17.4c-5.2,1.3-9.1,5.6-9.9,10.8l-7.1,42
			c-0.2,1.3-1.3,2.2-2.6,2.2h-42.1c-1.3,0-2.4-0.9-2.6-2.2l-7-42c-0.9-5.3-4.8-9.5-9.9-10.8c-14.3-3.7-28.1-9.4-41-16.8
			c-2.1-1.2-4.5-1.8-6.8-1.8c-2.7,0-5.5,0.8-7.8,2.5l-35,24.9c-0.5,0.3-1,0.5-1.5,0.5c-0.4,0-1.2-0.1-1.9-0.8l-29.8-29.8
			c-0.9-0.9-1-2.3-0.3-3.4l24.6-34.5c3.1-4.4,3.3-10.2,0.6-14.8c-7.8-13-13.8-27.1-17.6-41.8c-1.4-5.1-5.6-9-10.8-9.9l-42.3-7.2
			c-1.3-0.2-2.2-1.3-2.2-2.6v-42.1c0-1.3,0.9-2.4,2.2-2.6l41.7-7c5.3-0.9,9.6-4.8,10.9-10c3.7-14.7,9.4-28.9,17.1-42
			c2.7-4.6,2.4-10.3-0.7-14.6l-24.9-35c-0.7-1-0.6-2.5,0.3-3.4l29.8-29.8c0.7-0.7,1.4-0.8,1.9-0.8c0.6,0,1.1,0.2,1.5,0.5l34.5,24.6
			c4.4,3.1,10.2,3.3,14.8,0.6c13-7.8,27.1-13.8,41.8-17.6c5.1-1.4,9-5.6,9.9-10.8l7.2-42.3c0.2-1.3,1.3-2.2,2.6-2.2h42.1
			c1.3,0,2.4,0.9,2.6,2.2l7,41.7c0.9,5.3,4.8,9.6,10,10.9c15.1,3.8,29.5,9.7,42.9,17.6c4.6,2.7,10.3,2.5,14.7-0.6l34.5-24.8
			c0.5-0.3,1-0.5,1.5-0.5c0.4,0,1.2,0.1,1.9,0.8l29.8,29.8c0.9,0.9,1,2.3,0.3,3.4l-24.7,34.7c-3.1,4.3-3.3,10.1-0.6,14.7
			c7.8,13.1,13.6,27.2,17.4,41.9c1.3,5.2,5.6,9.1,10.8,9.9l42,7.1c1.3,0.2,2.2,1.3,2.2,2.6v42.1H451.9z"></path>
        <path d="M239.4,136.001c-57,0-103.3,46.3-103.3,103.3s46.3,103.3,103.3,103.3s103.3-46.3,103.3-103.3S296.4,136.001,239.4,136.001
			z M239.4,315.601c-42.1,0-76.3-34.2-76.3-76.3s34.2-76.3,76.3-76.3s76.3,34.2,76.3,76.3S281.5,315.601,239.4,315.601z"></path>
      </g>
    </g>
    <g></g>
    <g></g>
    <g></g>
    <g></g>
    <g></g>
    <g></g>
    <g></g>
    <g></g>
    <g></g>
    <g></g>
    <g></g>
    <g></g>
    <g></g>
    <g></g>
    <g></g>
  </symbol>
  <symbol version="1.1" id="snap" xmlns="http://www.w3.org/2000/svg" xmlns:xlink="http://www.w3.org/1999/xlink" x="0px" y="0px" xml:space="preserve" viewBox="0 0 511.999 511.999">
    <g>
      <g>
        <path d="M453.994,440.579l-96.462-167.077l78.769-28.383c5.039-1.816,8.407-6.587,8.43-11.944
			c0.024-5.355-3.303-10.156-8.326-12.015l-223.137-82.595c-3.561-1.316-7.518-0.981-10.806,0.916
			c-3.285,1.898-5.555,5.16-6.193,8.901l-39.995,234.514c-0.898,5.263,1.576,10.528,6.202,13.194
			c4.623,2.668,10.421,2.171,14.525-1.243l67.816-56.401l96.52,167.178c1.691,2.93,4.477,5.067,7.744,5.942
			c1.087,0.292,2.195,0.435,3.301,0.435c2.219,0,4.422-0.579,6.377-1.709l90.568-52.29
			C455.426,454.478,457.515,446.679,453.994,440.579z M357.049,481.823L259.34,312.586c-1.88-3.257-5.101-5.517-8.802-6.179
			c-0.746-0.133-1.496-0.198-2.242-0.198c-2.955,0-5.846,1.029-8.156,2.949l-52.921,44.015l31.61-185.35l175.974,65.138
			l-60.263,21.714c-3.553,1.28-6.356,4.07-7.655,7.618c-1.298,3.547-0.955,7.488,0.932,10.759l97.709,169.237L357.049,481.823z"></path>
      </g>
    </g>
    <g>
      <g>
        <path d="M144.361,123.46l-72.009-19.295c-6.805-1.825-13.796,2.215-15.619,9.018c-1.824,6.803,2.214,13.796,9.018,15.619
			l72.011,19.295c1.106,0.296,2.215,0.439,3.308,0.439c5.631,0,10.784-3.758,12.311-9.457
			C155.203,132.277,151.165,125.284,144.361,123.46z"></path>
      </g>
    </g>
    <g>
      <g>
        <path d="M252.017,0.438c-6.808-1.824-13.796,2.215-15.619,9.018l-19.295,72.009c-1.824,6.802,2.214,13.796,9.018,15.619
			c1.106,0.296,2.215,0.439,3.308,0.439c5.631,0,10.784-3.758,12.311-9.457l19.295-72.009
			C262.859,9.254,258.821,2.262,252.017,0.438z"></path>
      </g>
    </g>
    <g>
      <g>
        <path d="M182.674,80.323l-28.696-49.703c-3.523-6.099-11.318-8.19-17.421-4.668c-6.1,3.523-8.19,11.321-4.668,17.421
			l28.696,49.703c2.363,4.091,6.648,6.379,11.057,6.379c2.163,0,4.355-0.552,6.364-1.712
			C184.106,94.221,186.197,86.423,182.674,80.323z"></path>
      </g>
    </g>
    <g></g>
    <g></g>
    <g></g>
    <g></g>
    <g></g>
    <g></g>
    <g></g>
    <g></g>
    <g></g>
    <g></g>
    <g></g>
    <g></g>
    <g></g>
    <g></g>
    <g></g>
  </symbol>
  <symbol xmlns="http://www.w3.org/2000/svg" viewBox="0 0 40 40" id="tick box">
    <path fill="#8bb7f0" d="M4.769,37.5c-1.251,0-2.269-1.018-2.269-2.269V4.769C2.5,3.518,3.518,2.5,4.769,2.5h30.462 c1.251,0,2.269,1.018,2.269,2.269v30.462c0,1.251-1.018,2.269-2.269,2.269H4.769z"></path>
    <path fill="#4e7ab5" d="M35.231,3C36.206,3,37,3.794,37,4.769v30.462C37,36.206,36.206,37,35.231,37H4.769 C3.794,37,3,36.206,3,35.231V4.769C3,3.794,3.794,3,4.769,3H35.231 M35.231,2H4.769C3.24,2,2,3.24,2,4.769v30.462 C2,36.76,3.24,38,4.769,38h30.462C36.76,38,38,36.76,38,35.231V4.769C38,3.24,36.76,2,35.231,2L35.231,2z"></path>
    <path fill="none" stroke="#fff" stroke-miterlimit="10" stroke-width="3" d="M11 20.053L16.964 26.018 30.385 12.598"></path>
  </symbol>
  <symbol version="1.1" id="wordpress" xmlns="http://www.w3.org/2000/svg" xmlns:xlink="http://www.w3.org/1999/xlink" x="0px" y="0px" xml:space="preserve" viewBox="0 0 512 512">
    <g>
      <g>
        <g>
          <path d="M41.073,152.466c-1.425-3.903-5.074-6.551-9.226-6.696c-4.175-0.132-7.977,2.245-9.669,6.039
				C7.468,184.791,0.009,219.844,0.009,255.99c0,48.964,13.875,96.559,40.124,137.639c25.548,39.983,61.564,72.053,104.158,92.743
				c1.418,0.69,2.941,1.025,4.454,1.025c2.474,0,4.921-0.9,6.836-2.629c3.085-2.785,4.172-7.164,2.747-11.068L41.073,152.466z
				 M20.408,255.99c0-24.264,3.652-47.994,10.883-70.837l98.5,269.854C61.706,412.039,20.408,337.973,20.408,255.99z"></path>
          <path d="M345.376,480.765l-75.473-206.771c-1.471-4.028-5.3-6.702-9.58-6.702c-0.032,0-0.064,0-0.096,0
				c-4.318,0.041-8.143,2.796-9.55,6.88l-73.753,214.293c-0.907,2.633-0.697,5.523,0.581,7.998c1.278,2.475,3.513,4.319,6.185,5.106
				C207.225,508.492,231.555,512,256.001,512c29.053,0,57.656-4.883,85.015-14.514c2.907-1.024,5.195-3.307,6.226-6.212
				c1.031-2.905,0.692-6.121-0.922-8.747C345.897,481.836,345.594,481.272,345.376,480.765z M256.001,491.602
				c-18.944,0-37.814-2.291-56.238-6.818l60.841-176.773l63.36,173.59C301.937,488.241,279.126,491.602,256.001,491.602z"></path>
          <path d="M373.292,403.888c4.314,0,8.167-2.717,9.612-6.788l27.138-76.438c13.018-33.396,19.346-60.555,19.346-83.022
				c0-33.87-10.023-51.413-18.869-66.891c-0.054-0.094-0.109-0.189-0.167-0.283c-0.982-1.597-1.959-3.175-2.926-4.737
				c-10.569-17.065-19.698-31.803-19.698-47.571c0-16.074,11.879-33.424,31.069-33.424c0.317,0,0.804,0.041,1.321,0.085
				c0.404,0.034,0.805,0.067,1.209,0.093c4.329,0.281,8.341-2.2,10.038-6.179c1.696-3.979,0.699-8.597-2.492-11.52
				C381.573,23.87,320.18,0,256.001,0C169.666,0,89.708,43.127,42.115,115.365c-2.031,3.083-2.238,7.022-0.541,10.3
				c1.696,3.277,5.032,5.383,8.72,5.505c6.281,0.208,11.719,0.314,16.16,0.314c23.686,0,58.376-2.55,65.182-3.068
				c1.089,1.962,1.193,6.64,0.137,8.39c-2.685,0.3-14.319,1.553-26.893,2.209c-3.185,0.166-6.108,1.811-7.902,4.449
				c-1.794,2.636-2.251,5.961-1.235,8.984l80.48,239.565c1.395,4.153,5.286,6.951,9.668,6.951c0.004,0,0.008,0,0.011,0
				c4.386-0.005,8.278-2.813,9.665-6.973l53.793-161.323c0.738-2.214,0.696-4.613-0.122-6.8l-29.269-78.243
				c-1.416-3.782-4.928-6.373-8.959-6.608c-11.584-0.675-22.772-1.988-24.791-2.231c-0.919-1.946-0.707-6.437,0.377-8.368
				c7.002,0.524,42.099,3.064,64.336,3.064c23.69,0,58.382-2.55,65.184-3.068c1.09,1.961,1.196,6.641,0.139,8.389
				c-2.677,0.3-14.328,1.554-26.896,2.211c-3.193,0.166-6.123,1.821-7.916,4.469c-1.792,2.648-2.239,5.983-1.207,9.009
				l83.404,244.49c1.401,4.108,5.25,6.879,9.59,6.906C373.25,403.888,373.27,403.888,373.292,403.888z M303.83,158.48
				c8.698-0.708,14.988-1.437,15.375-1.483c11.726-1.386,19.321-12.743,18.061-27.005c-1.206-13.633-10.034-22.696-21.423-22.014
				c-0.065,0.004-0.133,0.008-0.198,0.013c-0.395,0.031-39.714,3.092-64.716,3.092c-23.477,0-63.551-3.063-63.953-3.093
				c-0.061-0.005-0.122-0.009-0.184-0.012c-11.588-0.695-20.652,9.083-21.489,23.228c-0.836,14.126,6.861,24.914,18.351,25.817
				c1.624,0.197,9.756,1.164,19.509,1.907l25.701,68.706l-43.012,128.993l-66.564-198.143c8.736-0.709,15.053-1.442,15.444-1.488
				c11.724-1.386,19.316-12.747,18.055-27.012c-1.207-13.629-10.032-22.697-21.419-22.007c-0.065,0.004-0.133,0.008-0.198,0.013
				c-0.374,0.031-35.884,2.795-60.879,3.071c44.547-57.103,112.646-90.666,185.71-90.666c51.924,0,101.868,16.978,142.757,48.187
				c-18.452,8.187-31.428,27.326-31.428,49.574c0,21.573,11.053,39.419,22.755,58.312c0.927,1.497,1.864,3.01,2.806,4.541
				c8.29,14.509,16.097,28.269,16.097,56.629c0,19.642-6.058,45.128-18.008,75.755c-0.038,0.098-0.074,0.196-0.109,0.295
				l-17.388,48.972L303.83,158.48z"></path>
          <path d="M480.631,133.175c-2.361-4.308-7.461-6.319-12.133-4.786c-4.669,1.538-7.577,6.188-6.917,11.059
				c1.038,7.665,1.566,15.707,1.566,23.901c0,26.824-5.711,53.594-17.971,84.247c-0.06,0.15-0.116,0.302-0.169,0.454l-75.07,217.056
				c-1.393,4.031-0.132,8.504,3.164,11.213c1.868,1.534,4.166,2.319,6.479,2.319c1.765,0,3.539-0.458,5.132-1.388
				c38.017-22.163,69.889-53.921,92.171-91.842c22.969-39.088,35.109-83.839,35.109-129.417
				C511.991,213.087,501.147,170.617,480.631,133.175z M399.158,443.029l65.051-188.086c9.331-23.375,15.137-44.781,17.736-65.726
				c6.365,21.591,9.65,44.116,9.65,66.774C491.595,329.489,456.798,398.762,399.158,443.029z"></path>
        </g>
      </g>
    </g>
    <g>
      <g>
        <path d="M262.286,369.734c-5.342-1.782-11.119,1.108-12.901,6.451l-1.36,4.079c-1.781,5.343,1.108,11.119,6.451,12.901
			c1.07,0.357,2.157,0.526,3.226,0.526c4.27,0,8.25-2.703,9.675-6.977l1.36-4.079C270.518,377.292,267.629,371.516,262.286,369.734z
			"></path>
      </g>
    </g>
    <g>
      <g>
        <path d="M249.707,407.472c-5.344-1.786-11.119,1.108-12.901,6.45l-16.999,50.996c-1.781,5.343,1.108,11.119,6.451,12.9
			c1.07,0.358,2.157,0.527,3.226,0.527c4.27,0,8.25-2.703,9.675-6.977l16.998-50.996
			C257.939,415.029,255.05,409.253,249.707,407.472z"></path>
      </g>
    </g>
    <g></g>
    <g></g>
    <g></g>
    <g></g>
    <g></g>
    <g></g>
    <g></g>
    <g></g>
    <g></g>
    <g></g>
    <g></g>
    <g></g>
    <g></g>
    <g></g>
    <g></g>
  </symbol>
</svg>